<svg version="1.1" id="Layer_1" xmlns="http://www.w3.org/2000/svg" xmlns:xlink="http://www.w3.org/1999/xlink" x="0px" y="0px"
	 width="37.416px" height="24px" viewBox="201.25 7.84 37.416 24" enable-background="new 201.25 7.84 37.416 24"
	 xml:space="preserve">
<g id="PayPal">
	
		<linearGradient id="SVGID_1_" gradientUnits="userSpaceOnUse" x1="219.9585" y1="762.0898" x2="219.9585" y2="785.5898" gradientTransform="matrix(1 0 0 1 0 -754)">
		<stop  offset="0" style="stop-color:#FFFFFF"/>
		<stop  offset="0.3204" style="stop-color:#FFF7E7"/>
		<stop  offset="0.7453" style="stop-color:#FEEDCE"/>
		<stop  offset="1" style="stop-color:#FEEAC4"/>
	</linearGradient>
	<rect x="201.5" y="8.09" fill="url(#SVGID_1_)" stroke="#FBB15F" stroke-width="0.5" width="36.916" height="23.5"/>
	<g>
		<path fill="#1C3665" d="M235.959,17.387v-0.994h-0.369V16.26h0.89v0.133h-0.37v0.994H235.959z"/>
		<path fill="#1C3665" d="M236.629,17.387V16.26h0.222l0.269,0.798c0.023,0.074,0.041,0.13,0.051,0.166
			c0.017-0.041,0.037-0.101,0.062-0.18l0.273-0.783h0.199v1.127h-0.145v-0.943l-0.331,0.943h-0.134l-0.325-0.954v0.954
			L236.629,17.387L236.629,17.387z"/>
	</g>
	<g>
		<path fill="#34679A" d="M225.284,18.952c-0.279,0.204-0.67,0.308-1.175,0.308h-0.229c-0.199,0-0.325-0.16-0.28-0.354l0.278-1.208
			c0.045-0.193,0.244-0.354,0.443-0.354h0.307c0.355,0,0.623,0.06,0.809,0.181c0.18,0.119,0.271,0.304,0.271,0.553
			C225.704,18.456,225.563,18.747,225.284,18.952z M227.292,17.091c-0.115-0.224-0.287-0.407-0.512-0.546
			c-0.228-0.143-0.496-0.24-0.808-0.298c-0.312-0.057-0.677-0.086-1.097-0.086h-1.941c-0.2,0-0.398,0.158-0.443,0.354l-1.312,5.69
			c-0.048,0.195,0.079,0.354,0.278,0.354h0.934c0.199,0,0.398-0.158,0.445-0.354l0.317-1.379c0.046-0.193,0.244-0.354,0.444-0.354
			h0.268c1.137,0,2.021-0.233,2.654-0.699c0.632-0.469,0.949-1.083,0.949-1.842C227.469,17.596,227.411,17.317,227.292,17.091"/>
		<path fill="#34679A" d="M230.135,21.303c-0.151,0.108-0.314,0.198-0.487,0.271c-0.171,0.069-0.334,0.104-0.483,0.104
			c-0.231,0-0.41-0.033-0.529-0.103c-0.12-0.066-0.182-0.183-0.182-0.349c0-0.188,0.045-0.341,0.137-0.455
			c0.092-0.112,0.226-0.201,0.396-0.266c0.168-0.062,0.373-0.105,0.612-0.138c0.239-0.03,0.495-0.06,0.771-0.082L230.135,21.303z
			 M229.842,22.561h1.17c0.199,0,0.398-0.16,0.445-0.354l0.676-2.932c0.019-0.067,0.031-0.146,0.043-0.239
			c0.009-0.092,0.015-0.167,0.015-0.223c0-0.416-0.178-0.723-0.528-0.919c-0.354-0.199-0.908-0.297-1.662-0.297
			c-0.375,0-0.75,0.028-1.127,0.086s-0.653,0.109-0.836,0.156l-0.156,0.799c-0.037,0.195-0.006,0.356,0.072,0.356
			c0.15-0.057,0.381-0.127,0.688-0.214c0.31-0.087,0.588-0.13,0.841-0.13c0.375,0,0.655,0.04,0.844,0.12
			c0.188,0.081,0.281,0.221,0.281,0.419c0,0.047-0.005,0.093-0.014,0.131c-0.012,0.039-0.018,0.068-0.021,0.087
			c-0.531,0.03-1.029,0.079-1.486,0.146s-0.851,0.174-1.183,0.322c-0.353,0.158-0.618,0.369-0.799,0.635
			c-0.181,0.268-0.271,0.59-0.271,0.971c0,0.36,0.127,0.654,0.381,0.881c0.254,0.226,0.58,0.338,0.979,0.338
			c0.249,0,0.443-0.018,0.584-0.053s0.29-0.086,0.449-0.153c0.118-0.052,0.245-0.123,0.383-0.214
			c0.139-0.09,0.256-0.168,0.354-0.231L229.842,22.561"/>
		<path fill="#34679A" d="M235.165,16.212l-1.328,5.994c-0.045,0.194-0.244,0.354-0.443,0.354h-0.831
			c-0.199,0-0.327-0.16-0.281-0.354l1.246-5.641c0.046-0.194,0.246-0.354,0.445-0.354L235.165,16.212"/>
		<path fill="#1C3665" d="M208.868,18.961c-0.279,0.205-0.668,0.309-1.172,0.309h-0.23c-0.199,0-0.327-0.16-0.282-0.354l0.278-1.208
			c0.047-0.195,0.246-0.354,0.447-0.354h0.303c0.355,0,0.625,0.062,0.808,0.183c0.183,0.119,0.271,0.304,0.271,0.553
			C209.29,18.465,209.149,18.757,208.868,18.961z M210.877,17.102c-0.116-0.225-0.287-0.407-0.515-0.547
			c-0.229-0.141-0.493-0.239-0.807-0.298c-0.312-0.057-0.679-0.085-1.097-0.085h-1.94c-0.202,0-0.399,0.158-0.444,0.354l-1.314,5.69
			c-0.045,0.195,0.082,0.354,0.283,0.354h0.933c0.198,0,0.399-0.159,0.444-0.354l0.316-1.38c0.047-0.193,0.245-0.354,0.445-0.354
			h0.268c1.139,0,2.021-0.232,2.654-0.699c0.633-0.469,0.949-1.08,0.949-1.843C211.055,17.607,210.997,17.327,210.877,17.102"/>
		<path fill="#1C3665" d="M213.719,21.312c-0.151,0.107-0.313,0.198-0.486,0.271s-0.333,0.104-0.484,0.104
			c-0.229,0-0.408-0.032-0.527-0.102c-0.12-0.064-0.182-0.186-0.182-0.352c0-0.188,0.043-0.34,0.135-0.452
			c0.094-0.113,0.227-0.201,0.397-0.267c0.171-0.06,0.372-0.104,0.611-0.139c0.239-0.029,0.498-0.059,0.771-0.08L213.719,21.312z
			 M213.429,22.57h1.169c0.199,0,0.398-0.158,0.443-0.354l0.679-2.931c0.019-0.069,0.032-0.149,0.038-0.242
			c0.012-0.091,0.018-0.166,0.018-0.221c0-0.417-0.177-0.724-0.529-0.921c-0.354-0.198-0.906-0.297-1.662-0.297
			c-0.375,0-0.75,0.028-1.125,0.087c-0.379,0.058-0.658,0.11-0.836,0.156l-0.158,0.798c-0.039,0.196-0.004,0.357,0.072,0.357
			c0.153-0.057,0.383-0.129,0.688-0.215c0.31-0.085,0.587-0.129,0.841-0.129c0.372,0,0.654,0.04,0.844,0.12
			c0.188,0.081,0.282,0.221,0.282,0.42c0,0.048-0.008,0.092-0.015,0.131c-0.012,0.04-0.02,0.067-0.02,0.086
			c-0.535,0.03-1.029,0.079-1.488,0.146c-0.457,0.065-0.852,0.174-1.183,0.322c-0.353,0.159-0.616,0.37-0.799,0.635
			c-0.181,0.268-0.271,0.59-0.271,0.972c0,0.36,0.127,0.653,0.381,0.88c0.254,0.225,0.58,0.338,0.979,0.338
			c0.25,0,0.443-0.02,0.584-0.053c0.143-0.036,0.291-0.088,0.449-0.153c0.118-0.052,0.246-0.123,0.384-0.214
			c0.138-0.092,0.257-0.168,0.351-0.23L213.429,22.57"/>
		<path fill="#1C3665" d="M220.508,17.599c-0.198,0-0.463,0.161-0.582,0.354l-1.646,2.818l-0.451-2.813
			c-0.045-0.195-0.244-0.355-0.445-0.355h-0.828c-0.2,0-0.328,0.16-0.282,0.355l0.722,4.649c0.014,0.101,0.025,0.186,0.039,0.257
			l-0.896,1.497c-0.119,0.195-0.055,0.354,0.144,0.354h0.966c0.199,0,0.461-0.158,0.58-0.354l4.012-6.763L220.508,17.599
			L220.508,17.599z"/>
	</g>
</g>
</svg>
