<svg version="1.1" id="Layer_1" xmlns="http://www.w3.org/2000/svg" xmlns:xlink="http://www.w3.org/1999/xlink" x="0px" y="0px"
	 width="232.253px" height="24px" viewBox="7.25 7.798 232.253 24" enable-background="new 7.25 7.798 232.253 24"
	 xml:space="preserve">
<g id="Mastercard">
	<rect x="7.25" y="7.881" fill="#22215E" width="36.917" height="23.875"/>
	<g>
		<g>
			<g>
				<circle fill="#ED1C2E" cx="18.761" cy="19.84" r="10.35"/>
				<g>
					<path fill="#FCB131" d="M32.656,9.49c-2.675,0-5.112,1.015-6.948,2.679c-0.374,0.339-0.723,0.706-1.044,1.095h2.09
						c0.286,0.347,0.548,0.714,0.789,1.096h-3.67c-0.219,0.353-0.419,0.718-0.597,1.097h4.863c0.166,0.354,0.312,0.721,0.438,1.096
						H22.84c-0.121,0.357-0.22,0.723-0.302,1.097h6.339c0.153,0.708,0.234,1.438,0.234,2.19c0,1.15-0.188,2.256-0.534,3.289H22.84
						c0.125,0.375,0.271,0.742,0.437,1.098h4.863c-0.179,0.379-0.376,0.742-0.598,1.096h-3.669c0.24,0.384,0.504,0.748,0.791,1.097
						h2.09c-0.322,0.394-0.671,0.758-1.046,1.101c1.836,1.662,4.273,2.676,6.948,2.676c5.716,0,10.35-4.633,10.35-10.353
						C43.005,14.125,38.372,9.49,32.656,9.49z"/>
				</g>
			</g>
			<path fill="#FCB131" d="M41.625,25.609c0-0.187,0.15-0.334,0.335-0.334s0.334,0.147,0.334,0.334c0,0.186-0.149,0.334-0.334,0.334
				S41.625,25.794,41.625,25.609z M41.96,25.865c0.142,0,0.255-0.115,0.255-0.256c0-0.144-0.113-0.254-0.255-0.254
				c-0.14,0-0.254,0.11-0.254,0.254C41.706,25.75,41.821,25.865,41.96,25.865z M41.916,25.755h-0.069v-0.293h0.125
				c0.024,0,0.053,0,0.075,0.015c0.022,0.02,0.037,0.045,0.037,0.071c0,0.035-0.02,0.066-0.052,0.078l0.056,0.129H42.01
				l-0.046-0.114h-0.049L41.916,25.755L41.916,25.755z M41.916,25.589h0.038c0.014,0,0.029,0,0.042-0.006
				c0.011-0.008,0.017-0.021,0.017-0.035c0-0.01-0.007-0.022-0.017-0.028c-0.012-0.008-0.031-0.006-0.044-0.006h-0.036V25.589z"/>
		</g>
		<g>
			<g>
				<path fill="#003473" d="M16.343,20.973c-0.119-0.013-0.17-0.017-0.251-0.017c-0.637,0-0.96,0.217-0.96,0.647
					c0,0.269,0.158,0.437,0.403,0.437C15.994,22.041,16.324,21.605,16.343,20.973z M17.161,22.876c-0.15,0-0.932,0-0.932,0
					l0.021-0.442c-0.284,0.352-0.662,0.52-1.178,0.52c-0.608,0-1.026-0.479-1.026-1.166c0-1.041,0.727-1.646,1.973-1.646
					c0.128,0,0.291,0.012,0.459,0.031c0.035-0.141,0.042-0.201,0.042-0.275c0-0.282-0.194-0.391-0.72-0.391
					c-0.549-0.004-1.003,0.133-1.189,0.193c0.013-0.072,0.157-0.959,0.157-0.959c0.559-0.166,0.928-0.229,1.343-0.229
					c0.966,0,1.478,0.434,1.476,1.254c0.002,0.219-0.034,0.487-0.09,0.846C17.398,21.227,17.188,22.552,17.161,22.876z"/>
				<polygon fill="#003473" points="13.577,22.876 12.453,22.876 13.096,18.839 11.66,22.876 10.895,22.876 10.799,18.863 
					10.123,22.876 9.071,22.876 9.949,17.626 11.565,17.626 11.663,20.564 12.648,17.626 14.445,17.626 				"/>
				<path fill="#003473" d="M34.044,20.973c-0.119-0.013-0.17-0.017-0.251-0.017c-0.637,0-0.959,0.217-0.959,0.647
					c0,0.269,0.157,0.437,0.402,0.437C33.695,22.041,34.025,21.605,34.044,20.973z M34.863,22.876c-0.151,0-0.933,0-0.933,0
					l0.021-0.442c-0.284,0.352-0.662,0.52-1.177,0.52c-0.61,0-1.027-0.479-1.027-1.166c0-1.041,0.728-1.646,1.973-1.646
					c0.128,0,0.291,0.012,0.458,0.031c0.035-0.141,0.044-0.201,0.044-0.275c0-0.282-0.195-0.391-0.72-0.391
					c-0.55-0.004-1.004,0.133-1.19,0.193c0.014-0.072,0.157-0.959,0.157-0.959c0.56-0.166,0.929-0.229,1.343-0.229
					c0.967,0,1.478,0.434,1.476,1.254c0.003,0.219-0.033,0.487-0.092,0.846C35.1,21.227,34.889,22.552,34.863,22.876z"/>
				<path fill="#003473" d="M22.154,22.811c-0.308,0.1-0.547,0.143-0.807,0.143c-0.574,0-0.889-0.33-0.889-0.938
					c-0.008-0.188,0.083-0.688,0.154-1.141c0.064-0.396,0.488-2.912,0.488-2.912h1.116l-0.131,0.645h0.675l-0.152,1.025h-0.677
					c-0.13,0.812-0.314,1.824-0.316,1.959c0,0.223,0.117,0.316,0.384,0.316c0.128,0,0.228-0.016,0.304-0.041L22.154,22.811z"/>
				<path fill="#003473" d="M25.579,22.775c-0.384,0.119-0.753,0.176-1.146,0.174c-1.251,0-1.902-0.654-1.902-1.904
					c0-1.459,0.829-2.535,1.954-2.535c0.922,0,1.51,0.604,1.51,1.547c0,0.312-0.041,0.617-0.139,1.051h-2.224
					c-0.075,0.619,0.321,0.877,0.971,0.877c0.399,0,0.761-0.084,1.161-0.271L25.579,22.775z M24.951,20.246
					c0.007-0.09,0.118-0.764-0.52-0.764c-0.356,0-0.61,0.271-0.713,0.764H24.951z"/>
				<path fill="#003473" d="M17.834,19.957c0,0.539,0.262,0.912,0.855,1.189c0.455,0.215,0.524,0.276,0.524,0.473
					c0,0.266-0.199,0.387-0.645,0.387c-0.335,0-0.646-0.053-1.007-0.17c0,0-0.146,0.941-0.154,0.988
					c0.256,0.055,0.483,0.105,1.17,0.125c1.186,0,1.732-0.451,1.732-1.426c0-0.588-0.229-0.935-0.791-1.189
					c-0.472-0.217-0.526-0.266-0.526-0.465c0-0.229,0.188-0.35,0.55-0.35c0.222,0,0.522,0.021,0.809,0.062l0.158-0.99
					c-0.29-0.047-0.73-0.084-0.987-0.084C18.264,18.511,17.831,19.167,17.834,19.957z"/>
				<path fill="#003473" d="M31.044,18.625c0.312,0,0.603,0.08,1.005,0.283l0.182-1.141c-0.164-0.064-0.743-0.443-1.234-0.443
					c-0.752,0-1.389,0.375-1.835,0.988c-0.652-0.215-0.921,0.221-1.25,0.655l-0.291,0.068c0.021-0.146,0.042-0.285,0.036-0.431
					h-1.033c-0.141,1.32-0.39,2.662-0.586,3.982l-0.051,0.287h1.124c0.188-1.221,0.29-2,0.354-2.527l0.423-0.231
					c0.062-0.236,0.262-0.316,0.657-0.308c-0.051,0.275-0.079,0.57-0.079,0.875c0,1.396,0.755,2.269,1.964,2.269
					c0.312,0,0.579-0.041,0.993-0.154L31.62,21.6c-0.373,0.186-0.678,0.271-0.955,0.271c-0.653,0-1.047-0.482-1.047-1.279
					C29.618,19.434,30.204,18.625,31.044,18.625z"/>
				<path fill="#003473" d="M40.556,17.626l-0.25,1.517C40,18.74,39.67,18.445,39.234,18.445c-0.566,0-1.082,0.432-1.42,1.062
					c-0.472-0.096-0.958-0.264-0.958-0.264v0.004c0.037-0.354,0.054-0.568,0.05-0.643h-1.033c-0.139,1.321-0.391,2.66-0.585,3.981
					l-0.051,0.287h1.123c0.152-0.985,0.27-1.806,0.354-2.453c0.383-0.348,0.576-0.649,0.965-0.629
					c-0.174,0.416-0.272,0.894-0.272,1.385c0,1.066,0.539,1.771,1.355,1.771c0.412,0,0.728-0.144,1.036-0.474l-0.053,0.396h1.062
					l0.856-5.25h-1.107V17.626z M39.151,21.889c-0.383,0-0.576-0.283-0.576-0.841c0-0.84,0.362-1.437,0.872-1.437
					c0.386,0,0.596,0.296,0.596,0.839C40.042,21.296,39.674,21.889,39.151,21.889z"/>
			</g>
			<g>
				<polygon fill="#FFFFFF" points="13.9,22.562 12.775,22.562 13.42,18.527 11.983,22.562 11.216,22.562 11.122,18.552 
					10.446,22.562 9.394,22.562 10.273,17.314 11.889,17.314 11.934,20.564 13.023,17.314 14.769,17.314 				"/>
				<path fill="#FFFFFF" d="M16.667,20.662c-0.118-0.014-0.17-0.018-0.252-0.018c-0.637,0-0.958,0.219-0.958,0.647
					c0,0.267,0.156,0.437,0.402,0.437C16.318,21.729,16.647,21.294,16.667,20.662z M17.484,22.562c-0.149,0-0.931,0-0.931,0
					l0.021-0.439c-0.284,0.35-0.663,0.518-1.178,0.518c-0.609,0-1.026-0.477-1.026-1.166c0-1.041,0.726-1.646,1.972-1.646
					c0.128,0,0.291,0.012,0.458,0.031c0.034-0.144,0.045-0.199,0.045-0.275c0-0.283-0.196-0.391-0.72-0.391
					c-0.551-0.006-1.004,0.133-1.191,0.19c0.013-0.069,0.156-0.961,0.156-0.961c0.56-0.164,0.929-0.225,1.345-0.225
					c0.965,0,1.476,0.434,1.476,1.25c0.001,0.221-0.035,0.491-0.092,0.848C17.722,20.916,17.513,22.242,17.484,22.562z"/>
				<path fill="#FFFFFF" d="M32.554,17.457l-0.184,1.139c-0.401-0.201-0.692-0.281-1.003-0.281c-0.84,0-1.429,0.81-1.429,1.966
					c0,0.797,0.396,1.278,1.05,1.278c0.276,0,0.581-0.086,0.954-0.271l-0.197,1.194c-0.414,0.113-0.683,0.154-0.993,0.154
					c-1.21,0-1.964-0.869-1.964-2.268c0-1.877,1.043-3.188,2.531-3.188C31.81,17.183,32.389,17.391,32.554,17.457z"/>
				<path fill="#FFFFFF" d="M34.368,20.662c-0.118-0.014-0.169-0.018-0.251-0.018c-0.637,0-0.959,0.219-0.959,0.647
					c0,0.267,0.157,0.437,0.403,0.437C34.019,21.729,34.348,21.294,34.368,20.662z M35.185,22.562c-0.148,0-0.931,0-0.931,0
					l0.021-0.439c-0.284,0.35-0.664,0.518-1.178,0.518c-0.609,0-1.026-0.477-1.026-1.166c0-1.041,0.726-1.646,1.973-1.646
					c0.127,0,0.29,0.012,0.457,0.031c0.034-0.144,0.044-0.199,0.044-0.275c0-0.283-0.195-0.391-0.72-0.391
					c-0.55-0.006-1.004,0.133-1.19,0.19c0.012-0.069,0.156-0.961,0.156-0.961c0.561-0.164,0.929-0.225,1.345-0.225
					c0.965,0,1.477,0.434,1.476,1.25c0.002,0.221-0.036,0.491-0.092,0.848C35.423,20.916,35.214,22.242,35.185,22.562z"/>
				<path fill="#FFFFFF" d="M22.477,22.5c-0.307,0.098-0.547,0.141-0.807,0.141c-0.574,0-0.888-0.33-0.888-0.938
					c-0.008-0.188,0.082-0.687,0.153-1.14c0.064-0.397,0.487-2.914,0.487-2.914h1.117l-0.131,0.646h0.574l-0.153,1.023h-0.575
					c-0.13,0.812-0.314,1.824-0.318,1.957c0,0.223,0.118,0.317,0.388,0.317c0.128,0,0.226-0.016,0.302-0.041L22.477,22.5z"/>
				<path fill="#FFFFFF" d="M25.902,22.464c-0.384,0.117-0.755,0.175-1.146,0.173c-1.251-0.001-1.902-0.654-1.902-1.904
					c0-1.459,0.828-2.531,1.955-2.531c0.92,0,1.508,0.602,1.508,1.545c0,0.312-0.04,0.619-0.137,1.051h-2.224
					c-0.076,0.619,0.319,0.877,0.97,0.877c0.4,0,0.761-0.082,1.163-0.271L25.902,22.464z M25.275,19.934
					c0.005-0.089,0.118-0.763-0.52-0.763c-0.356,0-0.61,0.271-0.715,0.763H25.275z"/>
				<path fill="#FFFFFF" d="M18.158,19.645c0,0.541,0.261,0.914,0.856,1.192c0.454,0.213,0.525,0.277,0.525,0.472
					c0,0.268-0.201,0.385-0.646,0.385c-0.335,0-0.647-0.051-1.008-0.168c0,0-0.147,0.942-0.153,0.986
					c0.255,0.057,0.482,0.106,1.169,0.127c1.186,0,1.733-0.451,1.733-1.429c0-0.586-0.229-0.93-0.792-1.188
					c-0.472-0.217-0.525-0.265-0.525-0.463c0-0.229,0.187-0.351,0.55-0.351c0.221,0,0.521,0.022,0.808,0.063l0.16-0.987
					c-0.291-0.048-0.733-0.084-0.989-0.084C18.589,18.201,18.153,18.855,18.158,19.645z"/>
				<path fill="#FFFFFF" d="M41.132,22.562H40.07l0.052-0.396c-0.308,0.33-0.624,0.475-1.035,0.475
					c-0.816,0-1.357-0.705-1.357-1.772c0-1.418,0.838-2.617,1.828-2.617c0.436,0,0.766,0.179,1.073,0.584l0.25-1.519h1.108
					L41.132,22.562z M39.474,21.58c0.523,0,0.891-0.596,0.891-1.439c0-0.541-0.209-0.838-0.595-0.838
					c-0.51,0-0.872,0.596-0.872,1.436C38.898,21.294,39.092,21.58,39.474,21.58z"/>
				<path fill="#FFFFFF" d="M36.198,18.294c-0.141,1.322-0.392,2.66-0.586,3.981l-0.052,0.287h1.124
					c0.402-2.61,0.498-3.121,1.13-3.059c0.1-0.533,0.287-1.002,0.426-1.236c-0.471-0.1-0.734,0.168-1.077,0.672
					c0.026-0.219,0.076-0.432,0.066-0.646H36.198L36.198,18.294z"/>
				<path fill="#FFFFFF" d="M26.948,18.294c-0.142,1.322-0.392,2.66-0.587,3.981l-0.051,0.287h1.124
					c0.403-2.61,0.498-3.121,1.128-3.059c0.102-0.533,0.289-1.002,0.427-1.236c-0.47-0.1-0.732,0.168-1.077,0.672
					c0.028-0.219,0.077-0.432,0.068-0.646H26.948L26.948,18.294z"/>
				<g>
					<path fill="#FFFFFF" d="M41.625,22.229c0-0.185,0.15-0.334,0.335-0.334c0.184,0,0.332,0.149,0.332,0.334
						c0,0.188-0.148,0.334-0.332,0.334S41.625,22.414,41.625,22.229z M41.96,22.484c0.142,0,0.254-0.113,0.254-0.254
						c0-0.144-0.112-0.254-0.254-0.254c-0.14,0-0.255,0.11-0.255,0.254C41.705,22.371,41.821,22.484,41.96,22.484z M41.915,22.376
						h-0.068v-0.293h0.125c0.024,0,0.051,0,0.074,0.015c0.023,0.018,0.037,0.043,0.037,0.073c0,0.033-0.019,0.063-0.051,0.076
						l0.055,0.129H42.01l-0.045-0.117h-0.05V22.376z M41.915,22.208h0.039c0.013,0,0.029,0.002,0.041-0.006
						c0.012-0.007,0.018-0.021,0.018-0.033c0-0.012-0.007-0.024-0.017-0.03c-0.012-0.007-0.032-0.005-0.045-0.005h-0.036V22.208z"/>
				</g>
			</g>
		</g>
	</g>
</g>
<g id="Visa">
	
		<linearGradient id="SVGID_1_" gradientUnits="userSpaceOnUse" x1="67.7495" y1="1528.8291" x2="67.7495" y2="1552.3317" gradientTransform="matrix(1 0 0 1 0 -1520.7393)">
		<stop  offset="0" style="stop-color:#FFFFFF"/>
		<stop  offset="0.4204" style="stop-color:#EEEEEE"/>
		<stop  offset="0.7453" style="stop-color:#CCCCCC"/>
		<stop  offset="1" style="stop-color:#EEEEEE"/>
	</linearGradient>
	<rect x="49.037" y="8.158" fill="url(#SVGID_1_)" stroke="#CCCCCC" stroke-width="0.5144" width="37.425" height="23.363"/>
	<g>
		<path fill="#0058A0" d="M60.212,14.539l-2.601,7.014l-0.278-1.426c-0.629-1.701-1.853-3.254-3.679-4.295l2.377,8.982h2.812
			l4.182-10.275H60.212"/>
		<polyline fill="#0058A0" points="62.44,24.816 64.101,14.529 66.759,14.529 65.096,24.816 62.44,24.816 		"/>
		<path fill="#0058A0" d="M74.732,14.783c-0.524-0.209-1.354-0.434-2.379-0.434c-2.629,0-4.477,1.396-4.492,3.393
			c-0.017,1.482,1.32,2.307,2.327,2.799c1.035,0.504,1.383,0.828,1.379,1.277c-0.01,0.688-0.829,1-1.592,1
			c-1.062,0-1.627-0.152-2.497-0.541l-0.346-0.16l-0.371,2.301c0.621,0.291,1.767,0.535,2.962,0.551
			c2.788,0,4.602-1.381,4.623-3.516c0.013-1.172-0.697-2.062-2.233-2.797c-0.925-0.477-1.5-0.791-1.49-1.275
			c0.001-0.426,0.481-0.883,1.524-0.883c0.869-0.019,1.492,0.183,1.987,0.395l0.237,0.12L74.732,14.783"/>
		<path fill="#0058A0" d="M81.542,14.539h-2.051c-0.638,0-1.113,0.186-1.396,0.854l-3.943,9.427h2.792c0,0,0.456-1.271,0.559-1.547
			c0.307,0,3.014,0.008,3.399,0.008c0.083,0.359,0.326,1.539,0.326,1.539h2.466L81.542,14.539 M78.269,21.169
			c0.223-0.59,1.061-2.875,1.061-2.875c-0.019,0.026,0.215-0.598,0.353-0.982l0.177,0.891c0,0,0.512,2.453,0.616,2.967
			C80.061,21.169,78.789,21.169,78.269,21.169z"/>
		<path fill="#FAA61A" d="M55.201,14.535h-4.285l-0.023,0.176c3.329,0.851,5.527,2.945,6.441,5.418l-0.93-4.728
			C56.244,14.75,55.777,14.558,55.201,14.535z"/>
	</g>
</g>
<g id="AmericanExpress">
	
		<radialGradient id="SVGID_2_" cx="-53.9194" cy="-474.9106" r="22.498" gradientTransform="matrix(1 0 0 -1 149.0522 -462.8594)" gradientUnits="userSpaceOnUse">
		<stop  offset="0" style="stop-color:#9FD4F3"/>
		<stop  offset="0.0711" style="stop-color:#99D2F2"/>
		<stop  offset="0.1575" style="stop-color:#8BCDF1"/>
		<stop  offset="0.2516" style="stop-color:#71C6EF"/>
		<stop  offset="0.3514" style="stop-color:#51BCEA"/>
		<stop  offset="0.4546" style="stop-color:#21ADE4"/>
		<stop  offset="0.5" style="stop-color:#1AA6DF"/>
		<stop  offset="1" style="stop-color:#3078BC"/>
	</radialGradient>
	<path fill="url(#SVGID_2_)" d="M115.038,7.881l-24.166,0.02v23.833l24.146,0.021l0.012-7.793c0.098-0.139,0.145-0.315,0.145-0.532
		c0-0.248-0.047-0.402-0.145-0.531"/>
	<path fill="#FFFFFF" d="M93.037,18.208l-0.467-1.133l-0.462,1.133 M103.28,17.757c-0.094,0.056-0.204,0.058-0.336,0.058h-0.825
		v-0.631h0.838c0.117,0,0.239,0.006,0.319,0.052c0.091,0.041,0.146,0.13,0.146,0.251C103.419,17.61,103.369,17.71,103.28,17.757z
		 M109.167,18.208l-0.473-1.133l-0.467,1.133H109.167z M98.192,19.434h-0.696l-0.002-2.226l-0.984,2.226h-0.598l-0.988-2.228v2.228
		h-1.383l-0.26-0.634h-1.414l-0.265,0.634h-0.737l1.217-2.843h1.01l1.154,2.691v-2.691h1.109l0.889,1.931l0.817-1.931h1.131V19.434
		L98.192,19.434z M100.966,19.434h-2.268v-2.843h2.268v0.592h-1.588v0.513h1.553v0.583h-1.553v0.568h1.588V19.434z M104.167,17.357
		c0,0.454-0.303,0.688-0.479,0.758c0.147,0.057,0.274,0.156,0.336,0.238c0.098,0.143,0.113,0.268,0.113,0.521v0.561h-0.687
		l-0.002-0.356c0-0.17,0.016-0.416-0.107-0.554c-0.1-0.102-0.25-0.123-0.495-0.123h-0.729v1.035h-0.68v-2.844H103
		c0.349,0,0.604,0.01,0.821,0.137C104.041,16.855,104.167,17.041,104.167,17.357z M105.255,19.434h-0.691v-2.843h0.691V19.434z
		 M113.298,19.434h-0.963l-1.287-2.134v2.134h-1.385l-0.266-0.634h-1.41l-0.258,0.634h-0.795c-0.33,0-0.748-0.072-0.984-0.312
		c-0.238-0.242-0.361-0.567-0.361-1.086c0-0.422,0.074-0.807,0.365-1.111c0.219-0.227,0.562-0.332,1.029-0.332h0.658V17.2H107
		c-0.248,0-0.39,0.036-0.522,0.168c-0.117,0.121-0.193,0.346-0.193,0.646c0,0.305,0.059,0.522,0.186,0.666
		c0.105,0.112,0.295,0.146,0.475,0.146h0.306l0.959-2.234h1.019l1.149,2.688v-2.688h1.035l1.192,1.979v-1.979h0.695v2.842H113.298z
		 M90.857,19.994h1.16l0.261-0.633h0.587l0.262,0.633h2.283V19.51l0.205,0.484H96.8l0.205-0.492v0.49h5.678l-0.004-1.037h0.109
		c0.074,0.004,0.1,0.01,0.1,0.137v0.9h2.937v-0.24c0.237,0.127,0.604,0.24,1.09,0.24h1.235l0.263-0.631h0.586l0.26,0.631h2.382v-0.6
		l0.358,0.6h1.907v-3.965h-1.887v0.469l-0.268-0.469h-1.936v0.469l-0.242-0.469h-2.617c-0.438,0-0.822,0.062-1.135,0.232v-0.232
		h-1.805v0.232c-0.197-0.176-0.47-0.232-0.769-0.232h-6.596L96.21,17.05l-0.455-1.023h-2.076v0.469l-0.229-0.469h-1.771
		l-0.822,1.887V19.994L90.857,19.994z"/>
	<path fill="#FFFFFF" d="M115.028,22.089h-1.235c-0.125,0-0.207,0.004-0.274,0.052c-0.072,0.045-0.101,0.114-0.101,0.204
		c0,0.107,0.062,0.181,0.147,0.212c0.072,0.022,0.148,0.03,0.263,0.03l0.366,0.011c0.373,0.01,0.621,0.073,0.771,0.229
		c0.027,0.021,0.043,0.045,0.062,0.067 M115.028,23.962c-0.163,0.242-0.483,0.365-0.92,0.365h-1.312v-0.611h1.309
		c0.129,0,0.22-0.016,0.273-0.069c0.047-0.043,0.08-0.105,0.08-0.187c0-0.082-0.033-0.147-0.084-0.188
		c-0.049-0.043-0.119-0.062-0.24-0.062c-0.637-0.021-1.432,0.021-1.432-0.881c0-0.412,0.26-0.847,0.975-0.847h1.354v-0.563h-1.258
		c-0.379,0-0.653,0.09-0.85,0.229v-0.229h-1.859c-0.299,0-0.646,0.072-0.812,0.229v-0.229h-3.32v0.229
		c-0.266-0.188-0.709-0.229-0.916-0.229h-2.19v0.229c-0.209-0.2-0.675-0.229-0.957-0.229h-2.451l-0.562,0.604l-0.523-0.604h-3.664
		v3.965h3.595l0.577-0.614l0.545,0.614l2.217,0.003v-0.933h0.217c0.293,0.004,0.642-0.011,0.947-0.142v1.068h1.826V23.85h0.088
		c0.111,0,0.123,0.004,0.123,0.115v0.916h5.551c0.354,0,0.722-0.088,0.926-0.252v0.252h1.761c0.364,0,0.726-0.051,0.996-0.182v-0.74
		L115.028,23.962L115.028,23.962z M112.319,22.828c0.134,0.137,0.203,0.312,0.203,0.604c0,0.61-0.383,0.896-1.065,0.896h-1.324
		v-0.609h1.318c0.129,0,0.219-0.018,0.276-0.068c0.047-0.045,0.08-0.106,0.08-0.188c0-0.084-0.035-0.146-0.082-0.188
		c-0.053-0.043-0.125-0.062-0.244-0.062c-0.635-0.021-1.43,0.021-1.43-0.881c0-0.412,0.258-0.848,0.971-0.848h1.361v0.604h-1.244
		c-0.125,0-0.205,0.004-0.272,0.052c-0.074,0.047-0.103,0.114-0.103,0.204c0,0.107,0.062,0.181,0.148,0.212
		c0.07,0.024,0.146,0.032,0.264,0.032l0.367,0.011C111.914,22.607,112.166,22.671,112.319,22.828z M106.188,22.652
		c-0.092,0.055-0.203,0.059-0.336,0.059h-0.826v-0.639h0.839c0.12,0,0.241,0.002,0.323,0.051c0.088,0.047,0.142,0.135,0.142,0.256
		C106.33,22.501,106.276,22.6,106.188,22.652z M106.599,23.005c0.15,0.058,0.273,0.156,0.332,0.24
		c0.098,0.139,0.109,0.269,0.113,0.519v0.563h-0.686v-0.354c0-0.173,0.018-0.427-0.107-0.558c-0.102-0.103-0.25-0.125-0.498-0.125
		h-0.729v1.039h-0.682v-2.845h1.569c0.342,0,0.594,0.017,0.815,0.136c0.215,0.129,0.349,0.307,0.349,0.631
		C107.08,22.705,106.778,22.936,106.599,23.005z M107.457,21.484h2.269v0.588h-1.591v0.518h1.552v0.58h-1.552v0.564l1.591,0.002
		v0.592h-2.269V21.484z M102.875,22.796h-0.879V22.07h0.885c0.246,0,0.416,0.101,0.416,0.351
		C103.296,22.667,103.134,22.796,102.875,22.796z M101.317,24.068l-1.043-1.156l1.043-1.121V24.068z M98.625,23.734h-1.67V23.17
		h1.491v-0.58h-1.491v-0.518h1.703l0.743,0.828L98.625,23.734z M104.024,22.421c0,0.789-0.588,0.953-1.182,0.953h-0.848v0.953
		h-1.322l-0.836-0.94l-0.869,0.94h-2.691v-2.845h2.732l0.837,0.935l0.862-0.935h2.172C103.419,21.484,104.024,21.634,104.024,22.421
		z"/>
</g>
<g id="Discover">
	<rect x="119.569" y="8.062" fill="#FFFFFF" width="37" height="23.45"/>
	<path fill="#F58220" d="M156.468,21.166c0,0-10.119,7.143-28.656,10.338h28.656V21.166z"/>
	<path fill="#231F20" d="M156.606,7.906l-37.182,0.002l0.002,23.865h37.314V7.906H156.606z M156.472,8.177c0,0.265,0,23.06,0,23.327
		c-0.27,0-36.506,0-36.775,0c0-0.266,0-23.06,0-23.324C119.964,8.179,156.203,8.177,156.472,8.177z"/>
	<path fill="#E83530" d="M152.914,28.576"/>
	
		<radialGradient id="SVGID_3_" cx="132.5469" cy="1051.3105" r="2.7204" gradientTransform="matrix(1 0 0 1 6.416 -1034.6572)" gradientUnits="userSpaceOnUse">
		<stop  offset="0.0056" style="stop-color:#FFEFE1"/>
		<stop  offset="0.1092" style="stop-color:#FFEAD8"/>
		<stop  offset="0.2782" style="stop-color:#FDDCC0"/>
		<stop  offset="0.4917" style="stop-color:#FBC698"/>
		<stop  offset="0.7412" style="stop-color:#F8A761"/>
		<stop  offset="1" style="stop-color:#F58220"/>
	</radialGradient>
	<path fill="url(#SVGID_3_)" d="M138.966,13.964c-1.521,0-2.754,1.188-2.754,2.654c0,1.559,1.182,2.725,2.754,2.725
		c1.535,0,2.748-1.18,2.748-2.693C141.714,15.146,140.509,13.964,138.966,13.964z"/>
	<path fill="#001722" d="M123.333,14.062h-1.479v5.165h1.476c0.778,0,1.346-0.187,1.842-0.597c0.588-0.487,0.938-1.223,0.938-1.983
		C126.104,15.123,124.964,14.062,123.333,14.062z M124.507,17.939c-0.316,0.287-0.727,0.412-1.379,0.412h-0.271v-3.417h0.271
		c0.652,0,1.045,0.115,1.379,0.418c0.352,0.311,0.559,0.79,0.559,1.285C125.065,17.134,124.858,17.632,124.507,17.939z"/>
	<rect x="126.569" y="14.062" fill="#001722" width="1.009" height="5.165"/>
	<path fill="#001722" d="M130.041,16.042c-0.604-0.225-0.783-0.373-0.783-0.649c0-0.326,0.315-0.573,0.752-0.573
		c0.304,0,0.552,0.124,0.812,0.417l0.527-0.688c-0.437-0.379-0.953-0.573-1.521-0.573c-0.912,0-1.611,0.635-1.611,1.479
		c0,0.713,0.326,1.076,1.271,1.418c0.396,0.139,0.599,0.23,0.697,0.293c0.201,0.133,0.303,0.317,0.303,0.535
		c0,0.418-0.334,0.727-0.78,0.727c-0.479,0-0.867-0.238-1.103-0.688l-0.647,0.629c0.465,0.68,1.021,0.98,1.789,0.98
		c1.045,0,1.778-0.699,1.778-1.697C131.526,16.833,131.185,16.46,130.041,16.042z"/>
	<path fill="#001722" d="M131.841,16.646c0,1.52,1.193,2.695,2.729,2.695c0.435,0,0.808-0.084,1.265-0.301v-1.187
		c-0.401,0.402-0.76,0.564-1.217,0.564c-1.017,0-1.734-0.735-1.734-1.781c0-0.991,0.742-1.773,1.688-1.773
		c0.479,0,0.848,0.17,1.266,0.581V14.26c-0.439-0.225-0.809-0.316-1.24-0.316C133.067,13.945,131.841,15.146,131.841,16.646z"/>
	<polygon fill="#001722" points="143.996,17.531 142.617,14.062 141.517,14.062 143.708,19.357 144.25,19.357 146.481,14.062 
		145.39,14.062 	"/>
	<polygon fill="#001722" points="146.938,19.227 149.794,19.227 149.794,18.352 147.946,18.352 147.946,16.957 149.726,16.957 
		149.726,16.082 147.946,16.082 147.946,14.936 149.794,14.936 149.794,14.062 146.938,14.062 	"/>
	<path fill="#001722" d="M153.785,15.585c0-0.967-0.666-1.524-1.828-1.524h-1.494v5.166h1.011V17.15h0.131L153,19.227h1.235
		l-1.627-2.177C153.367,16.895,153.785,16.376,153.785,15.585z M151.763,16.438h-0.295v-1.565h0.311c0.63,0,0.972,0.265,0.972,0.768
		C152.75,16.16,152.408,16.438,151.763,16.438z"/>
	<path fill="#231F20" d="M154.496,14.446c0-0.09-0.062-0.139-0.172-0.139h-0.146v0.455h0.106v-0.177l0.127,0.177h0.135l-0.147-0.188
		C154.458,14.557,154.496,14.509,154.496,14.446z M154.306,14.507h-0.021V14.39h0.021c0.053,0,0.078,0.02,0.078,0.059
		C154.384,14.488,154.358,14.507,154.306,14.507z"/>
	<path fill="#231F20" d="M154.343,14.134c-0.221,0-0.395,0.178-0.395,0.398c0,0.219,0.178,0.396,0.395,0.396
		c0.219,0,0.395-0.18,0.395-0.396C154.737,14.315,154.562,14.134,154.343,14.134z M154.343,14.859c-0.176,0-0.316-0.146-0.316-0.324
		c0-0.183,0.142-0.326,0.316-0.326c0.174,0,0.312,0.146,0.312,0.326C154.658,14.712,154.517,14.859,154.343,14.859z"/>
	<path fill="#231F20" d="M130.878,20.583l1.35,1.412v-1.338h0.191v1.805l-1.35-1.41v1.332h-0.191V20.583z"/>
	<path fill="#231F20" d="M130.862,20.583V22.4h0.229c0,0,0-1.221,0-1.305c0.061,0.062,1.35,1.408,1.35,1.408v-1.867h-0.229
		c0,0,0,1.229,0,1.312c-0.062-0.062-1.35-1.414-1.35-1.414V20.583L130.862,20.583z M130.897,20.628
		c0.062,0.062,1.351,1.412,1.351,1.412s0-1.332,0-1.367c0.024,0,0.129,0,0.153,0c0,0.035,0,1.66,0,1.744
		c-0.061-0.062-1.346-1.41-1.346-1.41s0,1.324,0,1.359c-0.027,0-0.133,0-0.158,0C130.897,22.333,130.897,20.712,130.897,20.628z"/>
	<path fill="#231F20" d="M133.354,20.658h0.896v0.178h-0.703v0.516h0.685v0.178h-0.685v0.679h0.703v0.181h-0.896V20.658z"/>
	<path fill="#231F20" d="M134.25,20.639h-0.914v1.764h0.935v-0.215c0,0-0.668,0-0.703,0c0-0.029,0-0.605,0-0.644
		c0.035,0,0.686,0,0.686,0v-0.213c0,0-0.646,0-0.686,0c0-0.033,0-0.445,0-0.478c0.035,0,0.703,0,0.703,0v-0.217L134.25,20.639
		L134.25,20.639z M134.231,20.673c0,0.027,0,0.119,0,0.144c-0.035,0-0.703,0-0.703,0v0.553c0,0,0.646,0,0.683,0
		c0,0.023,0,0.113,0,0.145c-0.032,0-0.683,0-0.683,0v0.715c0,0,0.668,0,0.703,0c0,0.023,0,0.115,0,0.144c-0.035,0-0.826,0-0.858,0
		c0-0.035,0-1.656,0-1.692C133.405,20.673,134.196,20.673,134.231,20.673z"/>
	<path fill="#231F20" d="M135.608,22.384h-0.19v-1.549H135v-0.178h1.03v0.178h-0.422V22.384L135.608,22.384z"/>
	<path fill="#231F20" d="M136.03,20.639h-1.051v0.217c0,0,0.388,0,0.418,0c0,0.033,0,1.547,0,1.547h0.229c0,0,0-1.514,0-1.547
		c0.033,0,0.422,0,0.422,0v-0.217H136.03z M136.013,20.673c0,0.027,0,0.119,0,0.144c-0.033,0-0.424,0-0.424,0s0,1.518,0,1.553
		c-0.025,0-0.131,0-0.154,0c0-0.035,0-1.553,0-1.553s-0.387,0-0.418,0c0-0.021,0-0.113,0-0.144
		C135.048,20.673,135.978,20.673,136.013,20.673z"/>
	<path fill="#231F20" d="M137.317,21.953l0.562-1.387l0.562,1.387l0.453-1.295h0.209l-0.662,1.816l-0.562-1.396l-0.562,1.396
		l-0.659-1.816h0.207L137.317,21.953z"/>
	<path fill="#231F20" d="M137.86,20.561c0,0-0.508,1.258-0.541,1.34c-0.028-0.084-0.44-1.262-0.44-1.262h-0.248l0.688,1.887
		c0,0,0.527-1.312,0.561-1.396c0.031,0.08,0.561,1.396,0.561,1.396l0.688-1.887h-0.248c0,0-0.412,1.178-0.438,1.262
		c-0.034-0.082-0.562-1.381-0.562-1.381L137.86,20.561z M137.333,21.958c0,0,0.514-1.269,0.543-1.342
		c0.031,0.075,0.561,1.387,0.561,1.387s0.457-1.305,0.467-1.33c0.021,0,0.134,0,0.171,0c-0.017,0.047-0.607,1.668-0.64,1.75
		c-0.031-0.082-0.559-1.389-0.559-1.389s-0.525,1.307-0.561,1.389c-0.029-0.082-0.621-1.703-0.639-1.75c0.034,0,0.149,0,0.17,0
		c0.01,0.025,0.467,1.33,0.467,1.33L137.333,21.958z"/>
	<path fill="#231F20" d="M141.587,21.523c0,0.496-0.406,0.893-0.898,0.893c-0.494,0-0.899-0.396-0.899-0.893
		c0-0.498,0.405-0.896,0.899-0.896C141.181,20.626,141.587,21.027,141.587,21.523z M139.979,21.521c0,0.389,0.314,0.713,0.709,0.713
		c0.392,0,0.707-0.324,0.707-0.713c0-0.396-0.312-0.717-0.707-0.717C140.292,20.805,139.979,21.128,139.979,21.521z"/>
	<path fill="#231F20" d="M139.769,21.523c0,0.5,0.412,0.91,0.92,0.91c0.506,0,0.918-0.408,0.918-0.91
		c0-0.504-0.412-0.914-0.918-0.914C140.181,20.609,139.769,21.02,139.769,21.523z M139.804,21.523c0-0.484,0.396-0.877,0.885-0.877
		c0.482,0,0.883,0.393,0.883,0.877c0,0.479-0.397,0.873-0.883,0.873C140.201,22.396,139.804,22.005,139.804,21.523z"/>
	<path fill="#231F20" d="M139.958,21.521c0,0.401,0.328,0.729,0.729,0.729c0.397,0,0.727-0.328,0.727-0.729
		c0-0.404-0.326-0.732-0.727-0.732C140.287,20.789,139.958,21.117,139.958,21.521z M139.998,21.521c0-0.388,0.312-0.697,0.69-0.697
		s0.688,0.312,0.688,0.697c0,0.385-0.309,0.694-0.688,0.694C140.306,22.218,139.998,21.906,139.998,21.521z"/>
	<path fill="#231F20" d="M142.614,22.384h-0.19v-1.727h0.25c0.328,0,0.634,0.086,0.634,0.477c0,0.267-0.166,0.453-0.435,0.478
		l0.549,0.774h-0.233l-0.521-0.76h-0.049v0.758H142.614z M142.614,21.457h0.062c0.22,0,0.438-0.041,0.438-0.309
		c0-0.283-0.209-0.312-0.438-0.312h-0.059v0.621H142.614z"/>
	<path fill="#231F20" d="M142.421,20.639h-0.02v1.764h0.229c0,0,0-0.726,0-0.758c0.016,0,0.029,0,0.029,0l0,0
		c0,0.016,0.508,0.75,0.508,0.75l0.25,0.008h0.037c0,0-0.529-0.738-0.559-0.779c0.256-0.035,0.422-0.225,0.422-0.486
		c0-0.334-0.213-0.494-0.648-0.494h-0.248V20.639z M142.671,20.673c0.418,0,0.613,0.146,0.613,0.459
		c0,0.259-0.162,0.438-0.416,0.459l-0.031,0.004c0,0,0.514,0.72,0.551,0.771c-0.053,0-0.201,0-0.203,0h0.002
		c0-0.015-0.508-0.752-0.508-0.752l-0.064-0.009h-0.018c0,0,0,0.726,0,0.761c-0.025,0-0.133,0-0.156,0c0-0.035,0-1.656,0-1.693
		C142.472,20.673,142.671,20.673,142.671,20.673z"/>
	<path fill="#231F20" d="M142.614,20.816h-0.018v0.658h0.076c0.215,0,0.455-0.039,0.455-0.328c0-0.308-0.234-0.33-0.457-0.33
		H142.614z M142.671,20.855c0.225,0,0.422,0.021,0.422,0.291c0,0.256-0.213,0.291-0.42,0.291c0,0-0.021,0-0.041,0
		c0-0.031,0-0.554,0-0.582C142.651,20.855,142.671,20.855,142.671,20.855z"/>
	<path fill="#231F20" d="M145.167,20.658h0.258l-0.812,0.805l0.84,0.922h-0.268l-0.709-0.793l-0.047,0.049v0.744h-0.193v-1.727
		h0.193v0.738L145.167,20.658z"/>
	<path fill="#231F20" d="M145.423,20.639h-0.266c0,0-0.654,0.657-0.713,0.715c0-0.078,0-0.715,0-0.715h-0.229v1.764h0.229
		c0,0,0-0.758,0-0.76c0.004,0,0.02-0.015,0.029-0.021c0.021,0.023,0.692,0.775,0.692,0.775l0.278,0.006h0.041
		c0,0-0.832-0.916-0.854-0.938c0.022-0.023,0.828-0.822,0.828-0.822h-0.039v-0.002h0.003V20.639z M145.38,20.673
		c-0.061,0.06-0.793,0.787-0.793,0.787s0.771,0.851,0.822,0.906c-0.061,0-0.227,0-0.227,0l0,0c0-0.011-0.693-0.787-0.693-0.787
		l-0.014-0.017l-0.062,0.062c0,0-0.004,0.705-0.004,0.74c-0.027,0-0.131,0-0.156,0c0-0.035,0-1.658,0-1.693c0.023,0,0.129,0,0.156,0
		c0,0.035,0,0.77,0,0.77s0.75-0.756,0.76-0.77C145.185,20.673,145.324,20.673,145.38,20.673z"/>
</g>
<g id="Maestro">
	<rect x="161.167" y="7.881" fill="#22215E" width="36.918" height="23.875"/>
	<g id="layer1" transform="translate(-457.20465,-631.07671)">
		<path id="path618" fill="#0066CB" d="M636.792,658.836c2.146-1.939,3.484-4.742,3.484-7.859c0-3.115-1.341-5.917-3.484-7.856
			c-1.875-1.705-4.381-2.742-7.107-2.742c-5.864,0-10.607,4.745-10.607,10.599c0,5.856,4.743,10.603,10.607,10.603
			C632.41,661.579,634.917,660.54,636.792,658.836"/>
		<path id="path620" fill="#0066CB" d="M636.792,658.836c2.146-1.939,3.484-4.742,3.484-7.859c0-3.115-1.341-5.917-3.484-7.856"/>
		<path id="path622" fill="none" stroke="#0066CB" stroke-width="0.3097" d="M636.792,658.836c2.146-1.939,3.484-4.742,3.484-7.859
			c0-3.115-1.341-5.917-3.484-7.856"/>
		<path id="path624" fill="#CC0001" d="M643.917,640.378c-2.742,0-5.248,1.038-7.125,2.742c-0.377,0.349-0.74,0.724-1.072,1.124
			h2.146c0.3,0.355,0.568,0.73,0.806,1.123h-3.752c-0.222,0.358-0.427,0.732-0.615,1.121h4.98c0.174,0.363,0.315,0.738,0.441,1.123
			h-5.864c-0.125,0.364-0.235,0.739-0.313,1.122h6.494c0.157,0.725,0.235,1.477,0.235,2.244c0,1.177-0.188,2.311-0.552,3.368h-5.864
			c0.127,0.385,0.269,0.759,0.44,1.122h4.981c-0.188,0.39-0.378,0.763-0.614,1.121h-3.752c0.236,0.394,0.521,0.769,0.803,1.123
			h2.146c-0.331,0.4-0.692,0.775-1.071,1.123c1.877,1.705,4.383,2.743,7.125,2.743c5.85,0,10.594-4.743,10.594-10.602
			C654.51,645.123,649.765,640.378,643.917,640.378"/>
		<path id="path626" fill="#231F20" d="M653.391,656.866h0.048c0.017,0,0.03,0.002,0.03-0.004c0.017-0.01,0.031-0.021,0.031-0.033
			c0-0.015-0.016-0.027-0.031-0.033c0-0.006-0.03-0.004-0.03-0.004h-0.048V656.866L653.391,656.866z M653.391,657.038h-0.062v-0.302
			h0.127c0.03,0,0.047,0,0.077,0.017c0.017,0.018,0.032,0.047,0.032,0.076c0,0.033-0.018,0.063-0.047,0.075l0.047,0.134h-0.079
			l-0.03-0.119h-0.063L653.391,657.038L653.391,657.038z M653.439,657.148c0.144,0,0.269-0.116,0.269-0.262
			c0-0.144-0.125-0.261-0.269-0.261c-0.142,0-0.252,0.117-0.252,0.261C653.187,657.032,653.297,657.148,653.439,657.148z
			 M653.09,656.887c0-0.188,0.158-0.342,0.349-0.342s0.349,0.154,0.349,0.342c0,0.189-0.158,0.343-0.349,0.343
			S653.09,657.077,653.09,656.887"/>
		<path id="path628" fill="#231F20" d="M628.028,653.928h-1.34l0.787-4.133l-1.812,4.133h-1.103l-0.222-4.107l-0.881,4.107h-1.216
			l1.022-5.374h2.099l0.031,3.325l1.45-3.325h2.223L628.028,653.928"/>
		<path id="path630" fill="#231F20" d="M642.767,653.874c-0.362,0.1-0.646,0.143-0.945,0.143c-0.678,0-1.041-0.338-1.041-0.961
			c0-0.121,0-0.253,0.031-0.393l0.079-0.428l0.062-0.347l0.614-3.336h1.31l-0.188,1.004h0.676l-0.188,1.062h-0.679l-0.348,1.821
			c-0.016,0.083-0.016,0.144-0.016,0.183c0,0.227,0.126,0.325,0.441,0.325c0.157,0,0.268-0.012,0.361-0.041L642.767,653.874"/>
		<path id="path632" fill="#231F20" d="M637.533,650.936c0,0.555,0.3,0.934,1.009,1.219c0.537,0.221,0.631,0.285,0.631,0.484
			c0,0.271-0.236,0.395-0.771,0.395c-0.395,0-0.771-0.054-1.197-0.174l-0.174,1.01l0.047,0.01l0.254,0.045
			c0.077,0.013,0.188,0.024,0.346,0.039c0.315,0.021,0.568,0.035,0.74,0.035c1.403,0,2.051-0.463,2.051-1.459
			c0-0.6-0.269-0.953-0.933-1.217c-0.565-0.223-0.629-0.271-0.629-0.474c0-0.237,0.222-0.356,0.646-0.356
			c0.269,0,0.631,0.023,0.961,0.065l0.189-1.013c-0.348-0.047-0.867-0.086-1.168-0.086
			C638.038,649.459,637.519,650.131,637.533,650.936"/>
		<path id="path634" fill="#231F20" d="M631.401,651.982c-0.143-0.017-0.205-0.021-0.299-0.021c-0.741,0-1.119,0.225-1.119,0.666
			c0,0.271,0.189,0.444,0.473,0.444C630.992,653.072,631.385,652.627,631.401,651.982L631.401,651.982z M632.299,653.928h-1.104
			l0.032-0.455c-0.349,0.361-0.788,0.529-1.388,0.529c-0.726,0-1.213-0.486-1.213-1.192c0-1.065,0.85-1.687,2.315-1.687
			c0.156,0,0.347,0.012,0.535,0.034c0.049-0.146,0.063-0.207,0.063-0.284c0-0.289-0.238-0.397-0.852-0.397
			c-0.379,0-0.805,0.048-1.104,0.123l-0.174,0.046l-0.127,0.025l0.189-0.979c0.662-0.168,1.088-0.233,1.576-0.233
			c1.135,0,1.733,0.443,1.733,1.283c0,0.217-0.016,0.379-0.11,0.867l-0.269,1.549l-0.047,0.277l-0.031,0.223l-0.03,0.152v0.119"/>
		<path id="path636" fill="#231F20" d="M635.989,651.231c0-0.091,0.016-0.166,0.016-0.222c0-0.355-0.235-0.564-0.631-0.564
			c-0.426,0-0.726,0.279-0.836,0.783L635.989,651.231L635.989,651.231z M636.635,653.834c-0.457,0.119-0.898,0.178-1.355,0.176
			c-1.48,0-2.238-0.672-2.238-1.959c0-1.5,0.979-2.604,2.303-2.604c1.088,0,1.781,0.617,1.781,1.589
			c0,0.323-0.049,0.635-0.175,1.077h-2.616c-0.017,0.068-0.017,0.099-0.017,0.14c0,0.506,0.396,0.765,1.167,0.765
			c0.475,0,0.896-0.085,1.371-0.276L636.635,653.834"/>
		<path id="path638" fill="#231F20" d="M649.372,651.422c0-0.455-0.188-0.89-0.725-0.89c-0.678,0-1.088,0.798-1.088,1.499
			c0,0.592,0.283,0.991,0.756,0.982c0.283,0,0.898-0.391,1.009-1.071C649.357,651.788,649.372,651.613,649.372,651.422z
			 M650.711,651.947c-0.188,1.452-1.215,2.097-2.568,2.097c-1.482,0-2.081-0.902-2.081-2.013c0-1.552,1.008-2.6,2.586-2.6
			c1.371,0,2.097,0.864,2.097,1.973C650.743,651.672,650.743,651.691,650.711,651.947"/>
		<path id="path640" fill="#FFFFFF" d="M651.153,653.256h0.047c0,0,0.016,0,0.031-0.008c0.016-0.006,0.016-0.021,0.016-0.033
			s0-0.024-0.016-0.03c0-0.006-0.031-0.006-0.047-0.006h-0.031V653.256L651.153,653.256z M651.153,653.426h-0.062v-0.301h0.125
			c0.017,0,0.048,0.002,0.08,0.018c0.015,0.016,0.029,0.044,0.029,0.074c0,0.033-0.016,0.064-0.047,0.078l0.047,0.131h-0.078
			l-0.047-0.117h-0.047V653.426L651.153,653.426z M651.2,653.536c0.143,0,0.252-0.115,0.252-0.262c0-0.143-0.109-0.258-0.252-0.258
			s-0.269,0.115-0.269,0.258C650.932,653.42,651.058,653.536,651.2,653.536z M650.853,653.274c0-0.188,0.16-0.339,0.349-0.339
			s0.348,0.151,0.348,0.339c0,0.189-0.158,0.344-0.348,0.344C651.011,653.618,650.853,653.465,650.853,653.274"/>
		<path id="path642" fill="#FFFFFF" d="M628.358,653.618h-1.322l0.787-4.132l-1.812,4.132h-1.198l-0.222-4.106l-0.787,4.106h-1.197
			l1.023-5.375h2.065l0.095,3.329l1.467-3.329h2.144L628.358,653.618"/>
		<path id="path644" fill="#FFFFFF" d="M643.099,653.565c-0.363,0.1-0.646,0.143-0.947,0.143c-0.678,0-1.041-0.34-1.041-0.959
			c0-0.125,0.019-0.254,0.033-0.394l0.078-0.428l0.062-0.349l0.615-3.336h1.309l-0.188,1.002h0.677l-0.188,1.063h-0.678
			l-0.347,1.825c-0.019,0.078-0.019,0.139-0.019,0.18c0,0.227,0.144,0.324,0.459,0.324c0.143,0,0.252-0.016,0.347-0.042
			L643.099,653.565"/>
		<path id="path646" fill="#231F20" d="M646.487,650.5l-0.031-0.138l0.269-0.684c-0.063-0.007-0.095-0.009-0.095-0.013
			c-0.08-0.016-0.11-0.024-0.127-0.024c-0.03-0.009-0.08-0.011-0.125-0.011c-0.441,0-0.741,0.19-1.151,0.707l0.144-0.776h-1.371
			l-0.806,4.364h1.31c0.174-1.002,0.252-1.571,0.363-2.045c0.172-0.787,0.756-1.145,1.182-1.063c0.047,0.01,0.078,0.01,0.141,0.032
			l0.08,0.029L646.487,650.5"/>
		<path id="path648" fill="#FFFFFF" d="M646.944,649.284c-0.111-0.044-0.127-0.044-0.143-0.049c-0.062-0.015-0.11-0.023-0.11-0.025
			c-0.047-0.006-0.095-0.01-0.142-0.01c-0.426,0-0.74,0.192-1.15,0.709l0.125-0.662h-1.197l-0.804,4.371h1.323
			c0.473-2.673,0.678-3.143,1.309-3.143c0.047,0,0.096,0.004,0.158,0.011l0.158,0.031L646.944,649.284"/>
		<path id="path650" fill="#FFFFFF" d="M637.864,650.629c0,0.551,0.314,0.932,1.024,1.219c0.536,0.217,0.614,0.281,0.614,0.482
			c0,0.271-0.235,0.394-0.756,0.394c-0.41,0-0.773-0.054-1.199-0.173l-0.188,1.009l0.062,0.01l0.235,0.044
			c0.079,0.016,0.205,0.027,0.363,0.039c0.313,0.023,0.552,0.035,0.726,0.035c1.418,0,2.064-0.461,2.064-1.457
			c0-0.602-0.27-0.951-0.946-1.217c-0.552-0.221-0.614-0.271-0.614-0.477c0-0.234,0.221-0.354,0.646-0.354
			c0.269,0,0.614,0.022,0.962,0.063l0.188-1.013c-0.347-0.048-0.865-0.086-1.182-0.086
			C638.385,649.149,637.864,649.821,637.864,650.629"/>
		<path id="path652" fill="#FFFFFF" d="M631.686,651.67c-0.143-0.014-0.206-0.018-0.301-0.018c-0.739,0-1.118,0.225-1.118,0.665
			c0,0.271,0.174,0.447,0.473,0.447C631.276,652.766,631.653,652.316,631.686,651.67L631.686,651.67z M632.647,653.618h-1.104
			l0.031-0.453c-0.331,0.36-0.787,0.526-1.388,0.526c-0.71,0-1.198-0.485-1.198-1.19c0-1.063,0.852-1.687,2.316-1.687
			c0.143,0,0.332,0.013,0.535,0.034c0.033-0.146,0.049-0.204,0.049-0.285c0-0.289-0.236-0.396-0.853-0.396
			c-0.379,0-0.804,0.045-1.088,0.121l-0.188,0.047l-0.109,0.027l0.174-0.982c0.66-0.17,1.087-0.23,1.576-0.23
			c1.134,0,1.732,0.443,1.732,1.282c0,0.215-0.015,0.379-0.095,0.864l-0.282,1.552l-0.047,0.278l-0.033,0.222l-0.017,0.151
			L632.647,653.618"/>
		<path id="path654" fill="#FFFFFF" d="M636.273,650.924c0-0.094,0-0.166,0-0.225c0-0.355-0.222-0.562-0.615-0.562
			c-0.424,0-0.725,0.279-0.851,0.785L636.273,650.924L636.273,650.924z M636.965,653.525c-0.44,0.117-0.883,0.177-1.34,0.177
			c-1.48,0-2.254-0.673-2.254-1.959c0-1.498,0.978-2.604,2.303-2.604c1.086,0,1.779,0.615,1.779,1.587
			c0,0.321-0.047,0.637-0.158,1.08h-2.615c-0.016,0.065-0.016,0.098-0.016,0.137c0,0.507,0.395,0.767,1.15,0.767
			c0.473,0,0.896-0.088,1.371-0.278L636.965,653.525"/>
		<path id="path656" fill="#FFFFFF" d="M649.687,651.077c0-0.455-0.188-0.89-0.726-0.89c-0.678,0-1.088,0.797-1.088,1.498
			c0,0.594,0.284,0.992,0.758,0.983c0.283,0,0.897-0.391,1.009-1.069C649.67,651.44,649.687,651.267,649.687,651.077z
			 M651.058,651.636c-0.205,1.454-1.214,2.101-2.568,2.101c-1.498,0-2.098-0.908-2.098-2.016c0-1.549,1.024-2.6,2.602-2.6
			c1.371,0,2.097,0.862,2.097,1.973C651.09,651.365,651.09,651.383,651.058,651.636"/>
	</g>
</g>
<g id="PayPal">
	<linearGradient id="SVGID_4_" gradientUnits="userSpaceOnUse" x1="220.7939" y1="-726.5479" x2="220.7939" y2="-750.0484" gradientTransform="matrix(1 0 0 -1 0 -718.5001)">
		<stop  offset="0" style="stop-color:#FFFFFF"/>
		<stop  offset="0.3204" style="stop-color:#FFF7E7"/>
		<stop  offset="0.7453" style="stop-color:#FEEDCE"/>
		<stop  offset="1" style="stop-color:#FEEAC4"/>
	</linearGradient>
	<rect x="202.337" y="8.048" fill="url(#SVGID_4_)" stroke="#FBB15F" stroke-width="0.5" width="36.916" height="23.5"/>
	<g>
		<path fill="#1C3665" d="M236.796,17.345v-0.994h-0.369v-0.133h0.89v0.133h-0.369v0.994H236.796z"/>
		<path fill="#1C3665" d="M237.466,17.345v-1.127h0.222l0.27,0.799c0.023,0.073,0.041,0.129,0.051,0.166
			c0.018-0.041,0.037-0.102,0.062-0.181l0.272-0.783h0.199v1.128h-0.146v-0.943l-0.33,0.943h-0.135l-0.324-0.955v0.955
			L237.466,17.345L237.466,17.345z"/>
	</g>
	<g>
		<path fill="#34679A" d="M226.121,18.91c-0.279,0.204-0.67,0.308-1.176,0.308h-0.229c-0.199,0-0.324-0.16-0.279-0.354l0.277-1.208
			c0.045-0.193,0.244-0.354,0.443-0.354h0.307c0.355,0,0.623,0.061,0.809,0.182c0.181,0.119,0.271,0.304,0.271,0.553
			C226.541,18.414,226.4,18.705,226.121,18.91z M228.129,17.049c-0.115-0.224-0.287-0.407-0.512-0.546
			c-0.229-0.143-0.496-0.24-0.809-0.298c-0.312-0.058-0.677-0.086-1.097-0.086h-1.94c-0.201,0-0.398,0.157-0.443,0.354l-1.312,5.689
			c-0.048,0.195,0.079,0.354,0.278,0.354h0.935c0.198,0,0.397-0.158,0.444-0.354l0.317-1.379c0.046-0.193,0.244-0.354,0.443-0.354
			h0.269c1.137,0,2.021-0.233,2.653-0.699c0.633-0.469,0.949-1.084,0.949-1.842C228.306,17.554,228.248,17.274,228.129,17.049"/>
		<path fill="#34679A" d="M230.972,21.261c-0.151,0.108-0.313,0.198-0.487,0.271c-0.17,0.068-0.334,0.104-0.482,0.104
			c-0.23,0-0.41-0.033-0.529-0.103c-0.119-0.066-0.182-0.183-0.182-0.349c0-0.188,0.045-0.342,0.137-0.455
			c0.092-0.112,0.227-0.201,0.396-0.267c0.168-0.062,0.373-0.104,0.611-0.138c0.239-0.03,0.495-0.061,0.771-0.082L230.972,21.261z
			 M230.679,22.518h1.171c0.198,0,0.397-0.16,0.444-0.354l0.676-2.932c0.019-0.067,0.031-0.146,0.043-0.239
			c0.009-0.093,0.015-0.167,0.015-0.224c0-0.416-0.178-0.723-0.527-0.918c-0.354-0.199-0.908-0.297-1.662-0.297
			c-0.375,0-0.75,0.027-1.127,0.086c-0.377,0.058-0.652,0.108-0.836,0.155l-0.156,0.8c-0.037,0.194-0.006,0.355,0.072,0.355
			c0.15-0.057,0.381-0.127,0.688-0.214c0.311-0.087,0.588-0.13,0.842-0.13c0.375,0,0.654,0.039,0.844,0.119
			c0.188,0.082,0.281,0.222,0.281,0.42c0,0.047-0.006,0.093-0.015,0.131c-0.012,0.039-0.018,0.068-0.021,0.087
			c-0.531,0.03-1.029,0.079-1.486,0.146c-0.457,0.067-0.852,0.174-1.184,0.322c-0.353,0.158-0.617,0.369-0.799,0.635
			c-0.181,0.268-0.271,0.59-0.271,0.971c0,0.36,0.127,0.654,0.381,0.881c0.255,0.227,0.58,0.339,0.979,0.339
			c0.248,0,0.443-0.019,0.584-0.054s0.289-0.086,0.449-0.152c0.117-0.053,0.244-0.123,0.383-0.214s0.256-0.169,0.354-0.231
			L230.679,22.518"/>
		<path fill="#34679A" d="M236.002,16.17l-1.328,5.994c-0.045,0.194-0.244,0.354-0.443,0.354h-0.83c-0.199,0-0.328-0.16-0.281-0.354
			l1.246-5.642c0.046-0.193,0.246-0.354,0.445-0.354L236.002,16.17"/>
		<path fill="#1C3665" d="M209.705,18.919c-0.279,0.205-0.668,0.309-1.172,0.309h-0.23c-0.199,0-0.326-0.16-0.281-0.354l0.277-1.208
			c0.047-0.194,0.246-0.354,0.447-0.354h0.303c0.355,0,0.625,0.062,0.809,0.184c0.183,0.119,0.271,0.304,0.271,0.553
			C210.127,18.423,209.986,18.715,209.705,18.919z M211.714,17.06c-0.116-0.225-0.287-0.406-0.515-0.547
			c-0.229-0.141-0.493-0.238-0.807-0.298c-0.312-0.057-0.68-0.085-1.098-0.085h-1.939c-0.203,0-0.399,0.158-0.444,0.354l-1.314,5.69
			c-0.045,0.195,0.082,0.354,0.283,0.354h0.933c0.198,0,0.399-0.159,0.444-0.354l0.315-1.38c0.048-0.193,0.246-0.354,0.445-0.354
			h0.269c1.139,0,2.021-0.232,2.653-0.699c0.633-0.469,0.949-1.08,0.949-1.844C211.893,17.565,211.834,17.285,211.714,17.06"/>
		<path fill="#1C3665" d="M214.556,21.27c-0.151,0.106-0.313,0.197-0.485,0.271c-0.174,0.073-0.334,0.104-0.484,0.104
			c-0.229,0-0.408-0.032-0.527-0.103c-0.119-0.063-0.182-0.187-0.182-0.353c0-0.188,0.043-0.34,0.135-0.451
			c0.094-0.113,0.227-0.201,0.396-0.268c0.172-0.06,0.373-0.104,0.611-0.139c0.239-0.029,0.498-0.059,0.771-0.08L214.556,21.27z
			 M214.266,22.528h1.17c0.198,0,0.397-0.158,0.442-0.354l0.679-2.931c0.02-0.069,0.032-0.149,0.038-0.242
			c0.013-0.091,0.019-0.166,0.019-0.221c0-0.417-0.178-0.725-0.529-0.922c-0.354-0.197-0.906-0.297-1.662-0.297
			c-0.375,0-0.75,0.028-1.125,0.088c-0.379,0.058-0.658,0.109-0.836,0.156l-0.158,0.797c-0.039,0.196-0.004,0.357,0.072,0.357
			c0.152-0.057,0.383-0.129,0.688-0.215c0.311-0.085,0.588-0.129,0.842-0.129c0.371,0,0.654,0.04,0.844,0.119
			c0.188,0.082,0.281,0.222,0.281,0.421c0,0.048-0.008,0.092-0.014,0.131c-0.013,0.04-0.021,0.067-0.021,0.086
			c-0.535,0.03-1.029,0.079-1.488,0.146c-0.457,0.065-0.853,0.174-1.183,0.322c-0.354,0.159-0.616,0.37-0.799,0.635
			c-0.182,0.269-0.271,0.59-0.271,0.973c0,0.359,0.127,0.652,0.381,0.88c0.254,0.225,0.58,0.338,0.979,0.338
			c0.25,0,0.443-0.021,0.584-0.053c0.144-0.036,0.291-0.089,0.449-0.153c0.119-0.052,0.246-0.123,0.385-0.214
			c0.138-0.093,0.257-0.168,0.351-0.229L214.266,22.528"/>
		<path fill="#1C3665" d="M221.345,17.558c-0.198,0-0.463,0.16-0.582,0.354l-1.646,2.818l-0.451-2.813
			c-0.045-0.194-0.244-0.354-0.445-0.354h-0.828c-0.199,0-0.328,0.16-0.281,0.354l0.722,4.649c0.014,0.101,0.024,0.186,0.039,0.257
			l-0.896,1.497c-0.119,0.195-0.056,0.354,0.144,0.354h0.966c0.199,0,0.461-0.158,0.58-0.354l4.012-6.764L221.345,17.558
			L221.345,17.558z"/>
	</g>
</g>
</svg>
